# xmcd
#
# Track frame offsets:
#	150
#	13867
#	31160
#	41037
#	56832
#	69017
#	79487
#	92530
#	110715
#	121067
#	132437
#	142282
#	153507
#	165402
#	177667
#	189812
#	203272
#	216305
#	227107
#	253012
#
# Disc length: 3528 seconds
#
# Revision: 0
# Processed by: cddbd v1.5PL3 Copyright (c) Steve Scherf et al.
# Submitted via: dBpowerAMP V4.0
#
DISCID=190dc614
DTITLE=John Lee Hooker - Kings Of The Blues
DYEAR=1900
DGENRE=Blues
TTITLE0=Time is marching
TTITLE1=Blues before sunrise
TTITLE2=Run on
TTITLE3=Dirty ground dog
TTITLE4=I'm a stranger
TTITLE5=She's mine
TTITLE6=Birmingham blues
TTITLE7=House rent boogie
TTITLE8=Big legs tight skirt
TTITLE9=Hard headed woman
TTITLE10=Dimples
TTITLE11=Boom boom boom
TTITLE12=I'm mad again
TTITLE13=I'm in the mood
TTITLE14=Crawlin' king snake
TTITLE15=Trouble blues
TTITLE16=Unfriendly woman
TTITLE17=Send me your pillow
TTITLE18=Drug store woman (Live)
TTITLE19=Boogie chillen 2
EXTD=
EXTT0=
EXTT1=
EXTT2=
EXTT3=
EXTT4=
EXTT5=
EXTT6=
EXTT7=
EXTT8=
EXTT9=
EXTT10=
EXTT11=
EXTT12=
EXTT13=
EXTT14=
EXTT15=
EXTT16=
EXTT17=
EXTT18=
EXTT19=
PLAYORDER=
